<svg xmlns="http://www.w3.org/2000/svg" width="64.7" height="28.1" viewBox="0 0 64.7 28.1"><g transform="translate(32.35 14.05)"><g transform="translate(-32.35 -14.05)"><path d="M64.7,25.1a3,3,0,0,1-3,3H3a3,3,0,0,1-3-3V4A3.1,3.1,0,0,1,3,1H61.7a3.1,3.1,0,0,1,3,3Z" fill="#fff"/><path d="M64.7,24.1a3,3,0,0,1-3,3H3a3,3,0,0,1-3-3V3A3.1,3.1,0,0,1,3,0H61.7a3.1,3.1,0,0,1,3,3Z" fill="#ff9535"/><path d="M13.6,11.4V7.7c0-.5.1-1,.1-1.5h3.4c0,.7-.1,1.3-.1,1.9a50,50,0,0,0-.1,5.5c.1,1.1.2,2.1.4,3.2a3.7,3.7,0,0,0,3,2.9l1.4.2a7.8,7.8,0,0,0,3.4-.5,1.7,1.7,0,0,0,1.2-1.6v-7a.7.7,0,0,0-.1-.5,1.6,1.6,0,0,0-1.3-1.1,6.1,6.1,0,0,0-2.7,0,1.5,1.5,0,0,0-1.3,1l-.3.8a6.4,6.4,0,0,0-.2.7,4.2,4.2,0,0,1,2.2-.2,2.3,2.3,0,0,1,2,1.9,2.4,2.4,0,0,1-1.5,2.5,4.4,4.4,0,0,1-1.6.2,3,3,0,0,1-2.8-1.6h0c-.3-.1-.2-.3-.3-.5a1.3,1.3,0,0,1-.1-.6l-.3-2a9.1,9.1,0,0,1,.6-3.2l.3-.6a2.2,2.2,0,0,1,1.2-.9l2.1-.2h6.6v8.1a1.9,1.9,0,0,0,.5,1.4h.1l.4.6h.1V6.8c0-.2.1-.2.3-.2h2a2.2,2.2,0,0,0,.1.8l.3-.3c.3-.2.5-.4.8-.4A7.5,7.5,0,0,1,36,6.6h0V21.4H33.6V15.7a33.8,33.8,0,0,0-.1-4.5,4.3,4.3,0,0,1,.1-1.6V8.5l-.6.4a1.4,1.4,0,0,0-.5,1V21.3H30.1c-.1-.6-.1-1.2-.2-1.8A2.4,2.4,0,0,0,29,18c0,.3-.1.5-.1.7A2.4,2.4,0,0,1,27,20.8l-1.3.3-2.2.3a22.8,22.8,0,0,1-5.2-.4,4.2,4.2,0,0,1-3.2-2.4,11.5,11.5,0,0,1-.6-1.7,20.3,20.3,0,0,1-.7-4.3,5,5,0,0,1-.2-1.2Z" fill="#66320e"/><path d="M40.1,6.4c0,.5-.1,1-.1,1.6s-.1,3.4-.1,5.1a18.869,18.869,0,0,0,.3,3.1,4.8,4.8,0,0,0,.7,2,3.7,3.7,0,0,0,2.7,1.6h2.5a.9.9,0,0,0,.9-1v-.5H44.6c-.3,0-.4-.1-.4-.4V14.5c0-.1,0-.2-.2-.2l-1-.2a2.3,2.3,0,0,1-1.9-1.9l-.3-1.7a5.7,5.7,0,0,1-.1-1.3,20.9,20.9,0,0,1,.1-2.5.3.3,0,0,1,.3-.3h2.3a4.1,4.1,0,0,1-.1,1.1,15.3,15.3,0,0,0,.2,3.7,1.4,1.4,0,0,0,1.6,1.3h2.6a.7.7,0,0,0,.6-.7v-.3c0-.3-.1-.4-.4-.4h-3a.3.3,0,0,1-.3-.3V6.6c0-.2.1-.2.2-.2h8.1c.2,0,.3.1.4.3a3.083,3.083,0,0,1,.1,1c0,4.2,0,8.5.1,12.7v.2c0,.4-.2.5-.5.5H51c-.2,0-.2,0-.2-.2v-.6c0-2.7-.1-5.4-.1-8.1a40.214,40.214,0,0,1,.1-4.1V7.7H47.3V9.1h2.3c.4,0,.4,0,.5.4a6.6,6.6,0,0,1,0,2.8,1.6,1.6,0,0,1-1.3,1.3,8.6,8.6,0,0,1-1.7.3H47v1.4h2.2c.3,0,.3,0,.3.3a19.3,19.3,0,0,1-.1,2.4,3.6,3.6,0,0,1-.9,2.2A1.8,1.8,0,0,1,47,21H43.3a7.5,7.5,0,0,1-2.6-.4,4.3,4.3,0,0,1-3.1-2.9,13.7,13.7,0,0,1-.8-3.5,36.3,36.3,0,0,1-.3-5.7c0-.8.1-1.5.1-2.3s0-.2.2-.2a12.3,12.3,0,0,0,3.3.3Z" fill="#66320e"/><path d="M13.4,11.7V8c0-.5.1-1,.1-1.5h3.4c0,.7-.1,1.3-.1,1.9a50,50,0,0,0-.1,5.5c.1,1.1.2,2.1.4,3.2a3.7,3.7,0,0,0,3,2.9l1.4.2a7.8,7.8,0,0,0,3.4-.5,1.7,1.7,0,0,0,1.2-1.6v-7a.7.7,0,0,0-.1-.5,1.6,1.6,0,0,0-1.3-1.1,6.1,6.1,0,0,0-2.7,0,1.5,1.5,0,0,0-1.3,1l-.3.8a6.4,6.4,0,0,0-.2.7,4.2,4.2,0,0,1,2.2-.2,2.3,2.3,0,0,1,2,1.9,2.4,2.4,0,0,1-1.5,2.5,4.4,4.4,0,0,1-1.6.2,3,3,0,0,1-2.8-1.6h0c-.3-.1-.2-.3-.3-.5a1.3,1.3,0,0,1-.1-.6l-.3-1.9a9.1,9.1,0,0,1,.6-3.2l.3-.6a2.2,2.2,0,0,1,1.2-1L22,6.8h6.6v8.1a1.9,1.9,0,0,0,.5,1.4h.1l.4.6h.1V7.1c0-.2.1-.2.3-.2h2a2.2,2.2,0,0,0,.1.8l.3-.3c.3-.2.5-.4.8-.4a7.5,7.5,0,0,1,2.6-.1h0V21.7H33.4V16a33.8,33.8,0,0,0-.1-4.5,4.3,4.3,0,0,1,.1-1.6V8.8l-.6.4a1.4,1.4,0,0,0-.5,1V21.6H29.9c-.1-.6-.1-1.2-.2-1.8a2.4,2.4,0,0,0-.9-1.5c0,.3-.1.5-.1.7a2.4,2.4,0,0,1-1.9,2.1l-1.3.3-2.2.3a22.8,22.8,0,0,1-5.2-.4,4.2,4.2,0,0,1-3.2-2.4,11.5,11.5,0,0,1-.6-1.7,20.3,20.3,0,0,1-.7-4.3,5,5,0,0,1-.2-1.2Z" fill="#fff"/><path d="M39.9,6.7c0,.5-.1,1-.1,1.6s-.1,3.4-.1,5.1a18.869,18.869,0,0,0,.3,3.1,4.8,4.8,0,0,0,.7,2,3.7,3.7,0,0,0,2.7,1.6h2.5a.9.9,0,0,0,.9-1v-.5H44.4c-.3,0-.4-.1-.4-.4V14.8c0-.1,0-.2-.2-.2l-1-.2a2.3,2.3,0,0,1-1.9-1.9l-.3-1.7a5.7,5.7,0,0,1-.1-1.3A20.9,20.9,0,0,1,40.6,7a.3.3,0,0,1,.3-.3h2.3a4.1,4.1,0,0,1-.1,1.1,15.3,15.3,0,0,0,.2,3.7,1.4,1.4,0,0,0,1.6,1.3h2.6a.7.7,0,0,0,.6-.7v-.3c0-.3-.1-.4-.4-.4h-3a.3.3,0,0,1-.3-.3V6.9c0-.2.1-.2.2-.2h8.1c.2,0,.3.1.4.3a3.083,3.083,0,0,1,.1,1c0,4.2,0,8.5.1,12.7v.2c0,.4-.2.5-.5.5h-2c-.2,0-.2,0-.2-.2v-.6c0-2.7-.1-5.4-.1-8.1a40.214,40.214,0,0,1,.1-4.1V8H47.1V9.4h2.3c.4,0,.4,0,.5.4a6.6,6.6,0,0,1,0,2.8A1.6,1.6,0,0,1,48.6,14a8.6,8.6,0,0,1-1.7.3h-.1v1.4H49c.3,0,.3,0,.3.3a19.3,19.3,0,0,1-.1,2.4,3.6,3.6,0,0,1-.9,2.2,1.8,1.8,0,0,1-1.5.7H43.1a7.5,7.5,0,0,1-2.6-.4A4.3,4.3,0,0,1,37.4,18a13.7,13.7,0,0,1-.8-3.5,36.3,36.3,0,0,1-.3-5.7c0-.8.1-1.5.1-2.3s0-.2.2-.2a12.3,12.3,0,0,0,3.3.3Z" fill="#fff"/></g></g></svg>