<svg xmlns="http://www.w3.org/2000/svg" width="75.158" height="49.248" viewBox="0 0 75.158 49.248"><defs><style>.a{fill:#fff;}.b{fill:#e2e2e2;}.c{fill:#ffd37d;}.d{fill:#d3e6c3;}.e{fill:#e8e685;}.f{fill:#d1bada;}.g{fill:#3a9db5;}.h{fill:#1f7f89;}.i{fill:#004656;}.j{fill:#ebc572;}.k{fill:#006078;}.l{fill:#0a0b0a;}.m{fill:#f5fbfe;}</style></defs><g transform="translate(73.127 63.387)"><path class="a" d="M18,70.5l35.145,7.941,1.537-.768.615-2.357,2.254.1,1.076-2,.461-.359,1.9.2c10.246-3.381,3.33-33.3,7.89-40.217,0,0-22.286-1.127-31.354-2.049-4.662,4.56,4.56,34.531-5.174,37.707l-4.611-1.025-.717.359-.871,1.23-3.074-1.23-.973.41-.922,1.23L18,70.5" transform="translate(-91.127 -94.387)"/><line class="a" x2="35.145" y2="7.941" transform="translate(-73.127 -23.887)"/><path class="b" d="M58.372,110.965,28.913,105.33l-3.791-1.23-.922,1.23,33.1,7.582.41.41Z" transform="translate(-94.151 -130.036)"/><path class="b" d="M66.433,108.679,34.771,103.3l-.871,1.23,29.2,5.277,2.254.871Z" transform="translate(-98.881 -129.646)"/><path class="b" d="M85.844,34.9l-28.588-2L57,33.976l28.28,2.1Z" transform="translate(-110.146 -95.313)"/><path class="c" d="M98.389,40.125a31.716,31.716,0,0,0-.973,7.941L84.71,46.734a29.971,29.971,0,0,1-.41-4.2,9.427,9.427,0,0,1,.871-3.433Z" transform="translate(-123.46 -98.337)"/><path class="b" d="M69.913,38.025v.307L56.9,37.256V37Z" transform="translate(-110.098 -97.313)"/><path class="b" d="M94.772,58.735v.256L79.3,57.556V57.3Z" transform="translate(-121.022 -107.213)"/><path class="b" d="M70.215,74.532v.256L57.1,73.456V73.2Z" transform="translate(-110.195 -114.967)"/><path class="b" d="M95.615,89.937v.256L82.5,88.656V88.4Z" transform="translate(-122.582 -122.379)"/><path class="b" d="M70.194,95.454l-.051.307L55.9,93.456l.051-.256Z" transform="translate(-109.61 -124.72)"/><path class="b" d="M69.594,96.954l-.051.307L55.3,94.956l.051-.256Z" transform="translate(-109.317 -125.452)"/><path class="b" d="M69.043,98.454l-.051.256L54.8,96.456V96.2Z" transform="translate(-109.073 -126.183)"/><path class="b" d="M68.443,99.954v.256L54.2,97.956V97.7Z" transform="translate(-108.781 -126.915)"/><path class="b" d="M67.894,101.454l-.051.256L53.6,99.456l.051-.256Z" transform="translate(-108.488 -127.646)"/><path class="b" d="M72.877,103.83l-.051.307-7.326-1.23.051-.307Z" transform="translate(-114.292 -129.304)"/><path class="b" d="M95.615,91.437v.307L82.5,90.207V89.9Z" transform="translate(-122.582 -123.111)"/><path class="b" d="M100.724,93.671l-.051.307L93.5,93.107V92.8Z" transform="translate(-127.947 -124.525)"/><path class="b" d="M70.215,76.032v.256L57.1,74.956V74.7Z" transform="translate(-110.195 -115.698)"/><path class="b" d="M70.215,77.532v.307L57.1,76.456V76.2Z" transform="translate(-110.195 -116.43)"/><path class="b" d="M73.729,79.473v.256l-9.478-.973L64.2,78.5Z" transform="translate(-113.658 -117.551)"/><path class="b" d="M94.967,60.235v.256L79.7,59.056V58.8Z" transform="translate(-121.217 -107.944)"/><path class="b" d="M94.967,61.735v.256L79.7,60.556V60.3Z" transform="translate(-121.217 -108.676)"/><path class="b" d="M94.967,63.235v.256L79.7,62.056V61.8Z" transform="translate(-121.217 -109.407)"/><path class="b" d="M94.918,64.735v.256L79.6,63.556l.051-.256Z" transform="translate(-121.168 -110.139)"/><path class="b" d="M94.967,66.235v.256L79.7,65.107V64.8Z" transform="translate(-121.217 -110.87)"/><path class="b" d="M94.967,67.735v.307L79.7,66.607V66.3Z" transform="translate(-121.217 -111.602)"/><path class="b" d="M94.918,69.235v.307L79.6,68.107l.051-.307Z" transform="translate(-121.168 -112.333)"/><path class="b" d="M101.5,71.566v.307L93,71.156V70.9Z" transform="translate(-127.703 -113.845)"/><path class="b" d="M69.413,39.576v.256L56.4,38.756V38.5Z" transform="translate(-109.854 -98.044)"/><path class="b" d="M68.913,41.076v.256L55.9,40.256V40Z" transform="translate(-109.61 -98.776)"/><path class="b" d="M68.913,42.576v.256L55.9,41.756V41.5Z" transform="translate(-109.61 -99.507)"/><path class="b" d="M68.913,44.076v.256L55.9,43.307V43Z" transform="translate(-109.61 -100.239)"/><path class="b" d="M68.913,45.576v.256L55.9,44.807V44.5Z" transform="translate(-109.61 -100.97)"/><path class="b" d="M68.913,47.076v.256L55.9,46.307V46Z" transform="translate(-109.61 -101.702)"/><path class="b" d="M68.913,48.576v.256L55.9,47.807V47.5Z" transform="translate(-109.61 -102.433)"/><path class="b" d="M69.413,50.125v.256L56.4,49.356V49.1Z" transform="translate(-109.854 -103.214)"/><path class="b" d="M75.511,52.266l.051.307-6.711-.717L68.8,51.6Z" transform="translate(-115.901 -104.433)"/><path class="d" d="M56.5,53.5v8.095L67,62.824s.615-5.072-.41-8.248Z" transform="translate(-109.902 -105.359)"/><path class="e" d="M97.454,76.237a36.786,36.786,0,0,1-.512,5.994L84.8,80.643a27.2,27.2,0,0,0,.154-5.943Z" transform="translate(-123.704 -115.698)"/><path class="f" d="M68.591,85.839s.359,2.305-.512,3.484L56.5,87.633a32.993,32.993,0,0,0,.41-3.433Z" transform="translate(-109.902 -120.331)"/><path class="b" d="M91.8,98.03s-.512,4.867-4,6.558l-.82.307h-1.23L75.3,103.153h1.127a8.5,8.5,0,0,0,4.56-6.353Z" transform="translate(-119.071 -126.476)"/><path class="g" d="M108.488,54.344c-.359-.871-1.9-2.767-2.869-4.457s-1.793-6.4-.768-8.3c5.072-9.58,20.6-5.789,22.184,2.049a10.016,10.016,0,0,1-4.406,10.81c-2.049,1.383-5.687,1.332-5.687,1.844-.1,1.793,2.562,8.3,1.281,9.529s-6.968,2.152-7.941.359a10.067,10.067,0,0,1-1.537-5.892Z" transform="translate(-133.251 -96.777)"/><path class="g" d="M113.531,85.9c2.715,6.3,4.508,13.013,6.916,19.417.256.666,2.357,1.076,1.383,1.537s-2.562-.1-2.767-.82c-1.076-4.1-2.562-8.146-4-12.142-.564-1.588-1.127-3.125-1.639-4.713s-1.025-2.049-.717-2.92" transform="translate(-137.27 -121.16)"/><path class="g" d="M127.915,89.1c3.176,4.457,6.916,11.732,9.888,16.343.307.461,2.254.1,1.639.973s-3.125-.922-3.433-1.383c-1.793-2.818-2.869-5.021-4.355-7.531-.666-1.127-1.383-2.305-2-3.433s-2.818-3.842-2.664-4.611" transform="translate(-144.276 -122.721)"/><path class="h" d="M130.832,84.061a17.164,17.164,0,0,0-.717-2.408c-.717-1.537-1.9-2.818-2.715-4.3-.154-.307-.359-.41-.307.051a9.631,9.631,0,0,0,.461,2.1c.973,1.742.564,1.383,1.486,2.869l.2.359a12.242,12.242,0,0,1,.615,4c-.051.615.973,1.383,1.332,0" transform="translate(-144.325 -116.862)"/><path class="i" d="M119.57,83.611c-.666.512-1.486.615-1.793.2s-.051-1.178.615-1.691l13.935-10.861c.666-.512,1.486-.615,1.793-.2s.051,1.178-.615,1.691Z" transform="translate(-139.723 -113.799)"/><path class="i" d="M116.005,94.1l-1.435.307-.871,2.2,1.025-.717s-.051-.359.154-.41a.461.461,0,0,1,.307.051.2.2,0,0,1,.1.2c0,.154-.1.307-.256.256h-.2l-.973.666H113.8l2.357-.2.717-1.281Z" transform="translate(-137.798 -125.159)"/><g transform="translate(-21.433 -32.237)"><path class="j" d="M119.866,91.8h-.051l-.615.461,1.178,1.537.666-.512h0Z" transform="translate(-119.046 -91.8)"/><path class="i" d="M118.9,92.9l.564.768.615.768-.564-.768Z" transform="translate(-118.9 -92.336)"/><path class="i" d="M119.1,92.8a2.561,2.561,0,0,0,.512.82,3.061,3.061,0,0,0,.666.717,2.562,2.562,0,0,0-.512-.82A3.062,3.062,0,0,0,119.1,92.8Z" transform="translate(-118.998 -92.288)"/></g><path class="k" d="M156.508,65.114l-.1-.154c-.051-.1-.307,0-.512.154l-6.968,5.431c-.2.154-.359.41-.256.461a.578.578,0,0,0,.512-.154l7.326-5.738" transform="translate(-154.835 -110.928)"/><path class="k" d="M155.142,61.1,147,67.451a.512.512,0,0,1-.717-.1L145.2,65.965a.512.512,0,0,1,.1-.717l7.736-6.045a.512.512,0,0,1,.717.1l1.383,1.793" transform="translate(-153.111 -108.09)"/><path class="h" d="M122.194,83.641c-1.127.154-1.281.512-2.408-.307s-2.664-2.1-4.1-2.971c-.256-.154-.768-.666-.615-1.127s1.127-.256,1.332-.051a51.6,51.6,0,0,0,4.15,3.125l.359.256c.615.41,2.613-.871,3.228-.871s1.23.973-.82,1.486" transform="translate(-138.453 -117.774)"/><path class="l" d="M128.449,48.125a1.025,1.025,0,1,1-1.025-1.025A1.025,1.025,0,0,1,128.449,48.125Z" transform="translate(-143.991 -102.238)"/><path class="l" d="M134.849,48.825a1.025,1.025,0,1,1-1.025-1.025A1.025,1.025,0,0,1,134.849,48.825Z" transform="translate(-147.112 -102.58)"/><path class="m" d="M115.675,52.254a111.067,111.067,0,0,1,11.527.922c.717.1,2.1,0,2.408.666s-.256,1.486-.461,1.9a8.607,8.607,0,0,1-7.582,4.97c-2.357,0-5.021-.82-6.148-3.023a8.241,8.241,0,0,1-.82-5.379,5.738,5.738,0,0,0,1.435-.2" transform="translate(-138.184 -104.677)"/><path class="l" d="M125.8,44.385l.461-.359a2.357,2.357,0,0,1,3.074.154s.973-.615,2.562.564c0,0-2-1.025-2.767,0,0,0-.973-1.844-3.33-.359" transform="translate(-143.698 -100.497)"/></g></svg>