<svg xmlns="http://www.w3.org/2000/svg" width="15" height="16" viewBox="0 0 15 16"><defs><style>.a{fill:#606163;}</style></defs><path class="a" d="M14.571,7.041A2.955,2.955,0,0,1,15,8.6a2.72,2.72,0,0,1-2.682,2.674h-1.14a3.99,3.99,0,0,1,.277,1.454C11.455,15,10.277,16,8.477,16c-1.925,0-1.815-2.967-2.243-3.394C5.524,11.9,4.685,10.53,4.086,10H1A1,1,0,0,1,0,9V1.5a1,1,0,0,1,1-1H3a1,1,0,0,1,.968.748C5.359,1.217,6.314,0,9.524,0h.694c2.41,0,3.5,1.232,3.529,2.979a3.013,3.013,0,0,1,.542,2.093A2.9,2.9,0,0,1,14.571,7.041Zm-1.93-1.682a1.388,1.388,0,0,0-.436-1.8c.241-1.524-.55-2.059-1.66-2.059H9.364C7.125,1.5,5.675,2.682,4,2.682V8.5h.341c.886,0,2.124,2.215,2.954,3.046.886.886.591,2.363,1.182,2.954,1.477,0,1.477-1.031,1.477-1.773,0-1.224-.886-1.773-.886-2.954h3.25A1.221,1.221,0,0,0,13.5,8.591c0-.591-.4-1.182-.7-1.182a1.5,1.5,0,0,0-.163-2.051ZM2.75,2.5A.75.75,0,1,0,2,3.25.75.75,0,0,0,2.75,2.5Z" transform="translate(0)"/></svg>