<svg xmlns="http://www.w3.org/2000/svg" width="15.685" height="14.321" viewBox="0 0 15.685 14.321"><defs><style>.a{fill:#00728b;}.b{fill:#fff;}</style></defs><g transform="translate(-1 -3)"><path class="a" d="M16,17.321H1.682A.682.682,0,0,1,1,16.639V3.682A.682.682,0,0,1,1.682,3H16a.682.682,0,0,1,.682.682V16.639A.682.682,0,0,1,16,17.321Z"/><circle class="b" cx="1.364" cy="1.364" r="1.364" transform="translate(6.456 5.728)"/><path class="b" d="M18.2,26.579l-3.41-4.433a.353.353,0,0,0-.54,0L11.442,25.8,9.334,23.165a.353.353,0,0,0-.533,0l-2.728,3.41a.341.341,0,0,0,.267.554H17.933A.341.341,0,0,0,18.2,26.579Z" transform="translate(-3.294 -12.535)"/></g></svg>