<svg xmlns="http://www.w3.org/2000/svg" width="15" height="16" viewBox="0 0 15 16"><path d="M14.571,8.959A2.955,2.955,0,0,0,15,7.4a2.72,2.72,0,0,0-2.682-2.674h-1.14a3.99,3.99,0,0,0,.277-1.454C11.455,1,10.277,0,8.478,0,6.552,0,6.662,2.967,6.235,3.394,5.524,4.1,4.685,5.47,4.086,6H1A1,1,0,0,0,0,7v7.5a1,1,0,0,0,1,1H3a1,1,0,0,0,.968-.748C5.359,14.783,6.314,16,9.524,16h.694c2.41,0,3.5-1.232,3.529-2.979a3.013,3.013,0,0,0,.542-2.093A2.9,2.9,0,0,0,14.571,8.959Zm-1.93,1.682a1.388,1.388,0,0,1-.436,1.8c.241,1.524-.55,2.059-1.66,2.059H9.364C7.125,14.5,5.675,13.318,4,13.318V7.5h.341c.886,0,2.124-2.215,2.954-3.046.886-.886.591-2.363,1.182-2.954,1.477,0,1.477,1.031,1.477,1.773,0,1.224-.886,1.773-.886,2.954h3.25A1.221,1.221,0,0,1,13.5,7.409c0,.591-.4,1.182-.7,1.182a1.5,1.5,0,0,1-.163,2.051ZM2.75,13.5A.75.75,0,1,1,2,12.75.75.75,0,0,1,2.75,13.5Z" transform="translate(0 0)" fill="#606163"/></svg>