<svg xmlns="http://www.w3.org/2000/svg" width="29.83" height="28.172" viewBox="0 0 29.83 28.172"><path d="M27.02,22.82a.182.182,0,1,0,.182-.182.182.182,0,0,0-.182.182ZM23,26.966a.362.362,0,1,0,.362-.362.362.362,0,0,0-.362.362ZM17.586,29.1a.544.544,0,1,0,.544-.544.544.544,0,0,0-.544.544Zm-5.83-.286a.724.724,0,1,0,.724-.724.724.724,0,0,0-.724.724ZM6.584,26.16a.906.906,0,1,0,.906-.906.906.906,0,0,0-.906.906ZM3,21.648A1.088,1.088,0,1,0,4.09,20.56,1.088,1.088,0,0,0,3,21.648Zm-1.344-5.54A1.268,1.268,0,1,0,2.926,14.84a1.268,1.268,0,0,0-1.268,1.268Zm1.106-5.5a1.45,1.45,0,1,0,1.45-1.45,1.45,1.45,0,0,0-1.45,1.45ZM6.082,6.166A1.632,1.632,0,1,0,7.714,4.534,1.632,1.632,0,0,0,6.082,6.166Zm4.872-2.542a1.812,1.812,0,1,0,1.812-1.812,1.812,1.812,0,0,0-1.812,1.812Zm5.472-.158A1.994,1.994,0,1,0,18.42,1.472,1.994,1.994,0,0,0,16.426,3.466Zm5.01,2.254A2.174,2.174,0,1,0,23.61,3.546,2.174,2.174,0,0,0,21.436,5.72ZM25,9.954A2.356,2.356,0,1,0,27.352,7.6,2.356,2.356,0,0,0,25,9.954Zm1.416,5.484A2.538,2.538,0,1,0,28.95,12.9a2.538,2.538,0,0,0-2.538,2.538Z" transform="translate(-1.658 -1.472)" fill="#00728b"/></svg>