<svg xmlns="http://www.w3.org/2000/svg" width="56" height="56" viewBox="0 0 56 56"><defs><style>.a{opacity:0.5;}.b{fill:#fff;}</style></defs><g transform="translate(-967 -633)"><path class="a" d="M4,0H52a4,4,0,0,1,4,4V52a4,4,0,0,1-4,4H4a4,4,0,0,1-4-4V4A4,4,0,0,1,4,0Z" transform="translate(967 633)"/><path class="b" d="M18.184,8.605,10.044.465A.928.928,0,0,0,9.6.229L9.425.2a.849.849,0,0,0-.619.265L.665,8.605a.855.855,0,0,0,0,1.239.855.855,0,0,0,1.239,0L9.425,2.353l7.521,7.521a.855.855,0,0,0,1.239,0A.89.89,0,0,0,18.184,8.605Z" transform="translate(985.175 655.68)"/></g></svg>