<svg xmlns="http://www.w3.org/2000/svg" width="14.186" height="14.186" viewBox="0 0 14.186 14.186"><path d="M7.093,0a7.093,7.093,0,1,0,7.093,7.093A7.093,7.093,0,0,0,7.093,0Zm0,13.078a5.985,5.985,0,1,1,5.985-5.985A5.985,5.985,0,0,1,7.093,13.078Z"/><path d="M0,0H.887V.887H0Z" transform="translate(6.65 9.753)"/><path d="M179.927,128.614a2,2,0,0,0-.686-.444,2.677,2.677,0,0,0-1.005-.169,2.35,2.35,0,0,0-.908.169,2.106,2.106,0,0,0-.712.474,1.884,1.884,0,0,0-.457.686,2.046,2.046,0,0,0-.158.886h.9a1.569,1.569,0,0,1,.358-1.067,1.173,1.173,0,0,1,.972-.411,1.211,1.211,0,0,1,.891.3,1.137,1.137,0,0,1,.288.826,1.113,1.113,0,0,1-.27.734,7.063,7.063,0,0,1-.578.622,5.728,5.728,0,0,0-.553.627,1.171,1.171,0,0,0-.242.762v.707h.887v-.381a1.275,1.275,0,0,1,.122-.6,1.837,1.837,0,0,1,.328-.468,5.108,5.108,0,0,1,.429-.411,4.761,4.761,0,0,0,.43-.42,1.972,1.972,0,0,0,.331-.5,1.47,1.47,0,0,0,.134-.65,1.934,1.934,0,0,0-.122-.666A1.723,1.723,0,0,0,179.927,128.614Z" transform="translate(-171.124 -124.453)"/></svg>