<svg xmlns="http://www.w3.org/2000/svg" width="13.471" height="11.786" viewBox="0 0 13.471 11.786"><path d="M6.67,32C2.95,32-.065,34.449-.065,37.472a4.836,4.836,0,0,0,1.392,3.323A6.676,6.676,0,0,1,.106,42.72a.632.632,0,0,0,.46,1.065,6.383,6.383,0,0,0,3.659-1.218,8.125,8.125,0,0,0,2.444.376c3.72,0,6.735-2.449,6.735-5.472S10.39,32,6.67,32Zm0,9.681a6.836,6.836,0,0,1-2.063-.318l-.6-.189-.513.363a5.657,5.657,0,0,1-1.513.763,6.6,6.6,0,0,0,.524-1.058l.279-.739-.542-.574A3.618,3.618,0,0,1,1.2,37.472c0-2.32,2.455-4.209,5.472-4.209s5.472,1.889,5.472,4.209S9.688,41.681,6.67,41.681Z" transform="translate(0.066 -32)"/></svg>