<svg xmlns="http://www.w3.org/2000/svg" width="16" height="16" viewBox="0 0 16 16"><path d="M15.583,4.513,14.142,5.954a.375.375,0,0,1-.531,0L10.142,2.485a.375.375,0,0,1,0-.531L11.583.513a1.5,1.5,0,0,1,2.122,0l1.878,1.878A1.5,1.5,0,0,1,15.583,4.513ZM8.9,3.192.7,11.4.035,15.2a.751.751,0,0,0,.869.869L4.7,15.4l8.207-8.207a.375.375,0,0,0,0-.531L9.439,3.192a.379.379,0,0,0-.534,0Zm-5,7.5a.436.436,0,0,1,0-.619L8.714,5.264a.438.438,0,0,1,.619.619L4.52,10.7A.436.436,0,0,1,3.9,10.7ZM2.773,13.323h1.5v1.134l-2.016.353-.972-.972.353-2.016H2.773Z" transform="translate(-0.024 -0.075)" fill="#606163"/></svg>