<svg xmlns="http://www.w3.org/2000/svg" width="42.182" height="20.227" viewBox="0 0 42.182 20.227"><path d="M39.2,17s-2.3-4.2-6.4-4.4A6.2,6.2,0,0,0,27,15.7s-1.8,4,1.9,4.6c0,0,2,.3,2.6-1.1s1-2.5-1.1-3.1c0,0,1.9-2.8,8.6,4.1Z" transform="translate(-0.017 -0.1)" fill="#fff"/><path d="M24,.1H7.6L7.8,13,20.5,4.3l.4,11.8s-3.4-6.2-9.7-.4c0,0-3.6,2.2-5.5.1,0,0-1.9-1.7-.9-15.7H.2S-1.3,17,4.3,19.4c0,0,4.3,2.7,9.2-1.5,0,0,3.9-3.6,5.5,1.5l.3.9h4.8ZM10.9,6.8V3h6.3Z" transform="translate(-0.017 -0.1)" fill="#fff"/><path d="M42.2,20.3V.2h-8a3.5,3.5,0,0,0-2.5,1.9,2.7,2.7,0,0,0-1.9-2H24.9V2.4s4.5-3,5.4,4.8c0,0-6.1-1.4-4.8,3.2,0,0,.9,2.2,4,1.7,0,0,1.7.1,2.3-2.6,0,0-.1,2.3,2.9,2.5H35c3.2.1,3.5-2.4,3.2-3.2S37.7,6.2,34.1,7l-.6.2s0-2.6,1.4-3.4,2.7-1,4,1.1V20.3Z" transform="translate(-0.017 -0.1)" fill="#fff"/></svg>